<?xml version="1.0" encoding="utf-8"?>
<!-- Generator: Adobe Illustrator 16.0.0, SVG Export Plug-In . SVG Version: 6.00 Build 0)  -->
<!DOCTYPE svg PUBLIC "-//W3C//DTD SVG 1.1//EN" "http://www.w3.org/Graphics/SVG/1.1/DTD/svg11.dtd">
<svg version="1.1" id="Layer_1" xmlns="http://www.w3.org/2000/svg" xmlns:xlink="http://www.w3.org/1999/xlink" x="0px" y="0px"
	 width="12px" height="12px" viewBox="0 0 12 12" enable-background="new 0 0 12 12" xml:space="preserve">
<g>
	<path fill="#FFFFFF" d="M10.962,2.923c-0.271,0.395-0.608,0.75-1.015,1.064v0.238c0,0.676-0.127,1.359-0.379,2.053
		c-0.256,0.695-0.627,1.32-1.117,1.877c-0.49,0.557-1.094,1.012-1.807,1.362C5.927,9.868,5.103,10.04,4.166,10.04
		c-0.574,0-1.124-0.08-1.647-0.244c-0.525-0.164-1.018-0.394-1.48-0.687c0.078,0.013,0.157,0.019,0.236,0.019
		c0.078,0,0.163,0,0.254,0c0.969,0,1.809-0.287,2.519-0.862C3.597,8.255,3.199,8.117,2.857,7.852
		C2.512,7.587,2.279,7.251,2.155,6.845C2.29,6.88,2.413,6.896,2.526,6.896c0.102,0,0.194-0.004,0.279-0.018
		c0.085-0.011,0.172-0.027,0.262-0.05C2.594,6.729,2.202,6.493,1.893,6.126C1.582,5.761,1.428,5.329,1.428,4.833V4.817
		c0.134,0.067,0.279,0.123,0.43,0.168C2.011,5.03,2.182,5.054,2.374,5.054C2.081,4.872,1.855,4.636,1.698,4.343
		C1.541,4.05,1.462,3.724,1.462,3.363c0-0.359,0.089-0.705,0.271-1.031C2.24,2.963,2.854,3.469,3.576,3.846
		c0.72,0.377,1.504,0.582,2.35,0.617C5.89,4.327,5.874,4.179,5.874,4.022c0-0.283,0.053-0.551,0.159-0.803
		c0.108-0.254,0.255-0.475,0.441-0.66S6.873,2.228,7.115,2.12C7.357,2.013,7.62,1.96,7.9,1.96c0.306,0,0.582,0.059,0.83,0.178
		c0.248,0.117,0.468,0.273,0.66,0.465c0.226-0.035,0.449-0.098,0.676-0.188s0.435-0.186,0.625-0.287
		c-0.18,0.475-0.479,0.846-0.896,1.117c0.217-0.023,0.418-0.062,0.609-0.119S10.782,3.003,10.962,2.923z"/>
</g>
</svg>
