<?xml version="1.0" encoding="utf-8"?>
<!-- Generator: Adobe Illustrator 16.0.0, SVG Export Plug-In . SVG Version: 6.00 Build 0)  -->
<!DOCTYPE svg PUBLIC "-//W3C//DTD SVG 1.1//EN" "http://www.w3.org/Graphics/SVG/1.1/DTD/svg11.dtd">
<svg version="1.1" id="Layer_1" xmlns="http://www.w3.org/2000/svg" xmlns:xlink="http://www.w3.org/1999/xlink" x="0px" y="0px"
	 width="68px" height="27px" viewBox="0 0 68 27" enable-background="new 0 0 68 27" xml:space="preserve">
<g>
	<path fill="#FFFFFF" d="M4.352,18.464c0,2.927,2.106,4.769,4.562,4.769c2.488,0,4.466-1.94,4.466-4.769
		c0-2.925-1.978-4.733-4.466-4.733C6.458,13.73,4.352,15.637,4.352,18.464 M4.098,3.604v8.976c0.924-1.677,3.508-2.597,5.168-2.597
		c4.592,0,8.006,2.892,8.006,8.48c0,5.326-3.477,8.48-8.103,8.48c-1.913,0-3.86-0.655-5.071-2.596l-0.256,2.234H0.206V3.604H4.098z"
		/>
</g>
<g>
	<path fill="#FFFFFF" d="M22.857,10.378v8.479c0,2.468,1.308,4.34,3.797,4.34c2.392,0,4.019-2.07,4.019-4.535v-8.284h3.86v16.24
		h-3.478L30.8,24.415c-1.627,1.644-3.126,2.433-5.328,2.433c-3.764,0-6.507-2.926-6.507-7.955v-8.515H22.857z"/>
</g>
<g>
	<path fill="#FFFFFF" d="M40.867,10.378l0.287,1.873c1.213-2.005,2.839-2.301,4.436-2.301c1.627,0,3.189,0.657,4.051,1.545
		l-1.754,3.483c-0.799-0.688-1.531-1.052-2.808-1.052c-2.043,0-3.925,1.118-3.925,4.11v8.546h-3.891V10.378H40.867z"/>
</g>
<g>
	<path fill="#FFFFFF" d="M53.311,18.497c0,2.466,1.437,4.769,4.275,4.769c2.838,0,4.273-2.303,4.273-4.769
		c0-2.433-1.658-4.8-4.273-4.8C54.775,13.697,53.311,16.064,53.311,18.497 M65.783,18.497c0,4.668-3.094,8.448-8.197,8.448
		c-5.105,0-8.168-3.78-8.168-8.448c0-4.636,3.127-8.448,8.137-8.448C62.561,10.049,65.783,13.861,65.783,18.497"/>
</g>
<g>
	<g>
		<path fill="#FFFFFF" d="M65.939,2.04h-0.979v2.116h0.543V3.499h0.189l0.488,0.657h0.582V4.035l-0.51-0.644
			C67,3.217,66.85,2.04,65.939,2.04z M65.939,3.026h-0.437V2.542h0.437C66.26,2.542,66.26,3.026,65.939,3.026z"/>
	</g>
</g>
<path fill="#FFFFFF" d="M65.768,0.997c-1.291,0-2.021,0.962-2.021,2.105c0,1.141,0.728,2.104,2.021,2.104
	c1.299,0,2.026-0.962,2.026-2.104C67.794,1.959,67.066,0.996,65.768,0.997z M65.768,4.658c-0.908,0-1.422-0.685-1.428-1.557
	c0.006-0.871,0.521-1.558,1.428-1.558c0.914,0,1.428,0.687,1.428,1.558S66.682,4.658,65.768,4.658z"/>
</svg>
