<?xml version="1.0" encoding="utf-8"?>
<!-- Generator: Adobe Illustrator 16.0.0, SVG Export Plug-In . SVG Version: 6.00 Build 0)  -->
<!DOCTYPE svg PUBLIC "-//W3C//DTD SVG 1.1//EN" "http://www.w3.org/Graphics/SVG/1.1/DTD/svg11.dtd">
<svg version="1.1" id="Layer_1" xmlns="http://www.w3.org/2000/svg" xmlns:xlink="http://www.w3.org/1999/xlink" x="0px" y="0px"
	 width="140.75px" height="63px" viewBox="0 0 140.75 63" enable-background="new 0 0 140.75 63" xml:space="preserve">
<g>
	<g>
		<defs>
			<rect id="SVGID_1_" x="1.656" y="0.484" width="137.344" height="61.344"/>
		</defs>
		<clipPath id="SVGID_2_">
			<use xlink:href="#SVGID_1_"  overflow="visible"/>
		</clipPath>
		<path clip-path="url(#SVGID_2_)" fill="#251F21" d="M135.926,17.598c4.938,9.575,3.817,22.682-2.57,31.189
			c-6.885,9.326-19.079,14.873-31.273,12.49C90.674,59.1,80.346,50.06,77.733,38.639C74.622,25.9,79.891,12.667,90.798,5.601
			c9.292-6.452,23.685-6.903,33.309-0.78C129.125,7.779,133.314,12.259,135.926,17.598"/>
		<path clip-path="url(#SVGID_2_)" fill="#FFFFFF" d="M134.725,17.598c4.979,9.369,4.064,22.189-2.406,30.654
			c-7.093,9.367-19.204,14.504-30.859,11.835c-10.742-2.304-20.49-11.218-22.813-22.106c-2.862-12.204,2.489-24.738,12.443-31.353
			c8.379-5.958,21.403-6.779,30.445-1.971C127.218,7.531,131.82,11.847,134.725,17.598"/>
		<path clip-path="url(#SVGID_2_)" fill="#251F21" d="M128.751,11.189c7.55,7.355,10.08,19.312,6.472,29.379
			c-3.443,9.862-12.652,17.093-22.979,18.777c-10.991,1.686-21.485-2.959-27.914-11.504c-6.596-8.506-7.26-22.066-1.37-31.229
			c5.684-9.411,16.094-14.71,27.127-14.013C117.346,3.136,123.69,6.133,128.751,11.189"/>
		<path clip-path="url(#SVGID_2_)" fill="#F8FAF9" d="M125.02,21.421c3.317,5.26,3.442,13.478,0.332,18.86
			c-3.693,6.738-11.199,10.684-18.833,10.149c-7.715-0.411-14.724-5.712-17.129-12.862c-2.241-6.532-0.665-14.176,3.897-19.148
			c4.811-5.424,12.734-7.93,20.035-5.875C118.217,13.819,122.363,17.104,125.02,21.421"/>
		<path clip-path="url(#SVGID_2_)" fill="#251F21" d="M110.707,17.352c0.165,0.452,0.04,0.863,0.082,1.356
			c0.995,0.451,1.907,1.273,1.867,2.465c-0.167,0.576-0.332,1.151-0.457,1.684c0.497,0.083,1.037,0.041,1.452,0.412
			c0.831,1.52-0.374,3.247-1.204,4.521c-0.87,0.658,0.5,0.862,0.5,1.48c0.497,1.355-0.041,2.917-0.914,3.862
			c0,0.164-0.456,0.411-0.124,0.658c-0.084,0.532-0.042,1.271-0.414,1.806c0.124,0.494-0.291,0.29-0.333,0.658
			c-0.746,0.7-1.782,1.108-2.654,1.19c0.25-4.354,0.125-8.628,0.084-13.148c-0.167-0.204-0.457-0.452-0.664-0.166l-0.25,0.454
			c-0.123,4.396,0,8.219-0.123,12.657c-1.576-0.576-3.236-1.686-3.983-3.287c-0.165-0.576,0.249-1.232,0.623-1.684
			c-0.829-0.536-2.115-1.481-1.866-2.754c-0.084-0.535,0.498-0.904,0.787-1.192c0.456-0.123,1.038-0.123,1.369-0.205
			c-1.078-1.521-2.529-3.495-1.658-5.549c0.373-0.534,1.077-0.574,1.658-0.738c-0.041-0.493-0.539-0.904-0.705-1.398
			c-0.208-0.616,0.084-1.192,0.332-1.685c0.622-0.575,1.369-0.862,2.24-0.862c0.331,0,0.954,0.576,0.954-0.164
			c0-0.658,0.123-1.315,0.746-1.602C109.129,15.79,110.375,16.364,110.707,17.352"/>
		<path clip-path="url(#SVGID_2_)" fill="none" stroke="#D4DDD8" stroke-width="0.1455" stroke-miterlimit="3.864" d="
			M110.696,17.372c0.165,0.451,0.041,0.861,0.081,1.353c0.992,0.451,1.9,1.27,1.859,2.459c-0.165,0.575-0.329,1.149-0.453,1.681
			c0.494,0.082,1.032,0.042,1.445,0.411c0.826,1.517-0.373,3.24-1.199,4.511c-0.868,0.656,0.496,0.859,0.496,1.476
			c0.496,1.352-0.039,2.91-0.908,3.853c0,0.164-0.456,0.41-0.123,0.656c-0.084,0.531-0.043,1.27-0.414,1.803
			c0.123,0.492-0.289,0.287-0.331,0.656c-0.743,0.698-1.775,1.105-2.645,1.188c0.249-4.343,0.124-8.608,0.084-13.118
			c-0.165-0.204-0.455-0.451-0.661-0.165l-0.248,0.452c-0.124,4.386,0,8.199-0.124,12.627c-1.569-0.574-3.224-1.681-3.967-3.279
			c-0.164-0.574,0.249-1.23,0.621-1.68c-0.827-0.534-2.107-1.477-1.858-2.748c-0.084-0.534,0.494-0.902,0.783-1.189
			c0.454-0.122,1.033-0.122,1.363-0.204c-1.073-1.518-2.52-3.487-1.652-5.538c0.372-0.531,1.074-0.572,1.652-0.736
			c-0.041-0.492-0.536-0.902-0.701-1.394c-0.208-0.616,0.082-1.19,0.33-1.681c0.619-0.574,1.363-0.861,2.23-0.861
			c0.33,0,0.951,0.575,0.951-0.163c0-0.656,0.122-1.312,0.743-1.599C109.124,15.814,110.365,16.386,110.696,17.372z"/>
		<path clip-path="url(#SVGID_2_)" fill="#251F21" d="M95.567,25.569c0.497,0.412,0.663,0.947,0.829,1.48
			c0.58-0.041,1.244-0.494,1.907-0.206c1.245,1.111,1.038,2.959,1.536,4.438c0.704,0.205,1.699-0.042,2.033,0.78
			c0.703,1.315,0.371,2.958,0.455,4.52c1.121-0.164,1.907,0.74,2.405,1.52c0.622,1.645,1.161,3.329,0.291,5.014
			c-3.651-3.739-7.052-8.382-9.624-12.944c-0.04-0.162-0.207-0.083-0.332-0.121c-0.372,0.287-0.123,0.738-0.041,1.026
			c2.448,4.601,5.601,9.165,9.416,12.697c0.041,0.411-0.043,0.986-0.498,1.191c-0.455,0.247-1.078,0.288-1.576,0.124
			c-0.414-0.288-0.58-0.74-0.789-1.232c-1.284,0-2.902,0.575-3.815-0.699c-0.206-0.575-0.041-1.233,0.043-1.808
			c-1.37-0.452-3.359-1.026-3.65-2.754c-0.083-0.493,0.207-0.861,0.456-1.151c0.123-0.082,0.25-0.121,0.373-0.245
			c-1.119-0.699-2.986-1.109-3.193-2.712c0.041-0.78,0.788-1.068,1.285-1.479c-0.787-0.862-1.826-1.767-1.534-3.082
			c0.29-0.699,1.12-0.699,1.7-0.82c0.332-1.315-0.871-3.124,0.623-3.985C94.488,25.119,95.152,25.078,95.567,25.569"/>
		<path clip-path="url(#SVGID_2_)" fill="none" stroke="#D4DDD8" stroke-width="0.1455" stroke-miterlimit="3.864" d="
			M95.576,25.591c0.496,0.411,0.662,0.944,0.826,1.477c0.578-0.041,1.241-0.492,1.902-0.207c1.24,1.108,1.034,2.953,1.53,4.429
			c0.701,0.204,1.692-0.041,2.025,0.778c0.703,1.313,0.371,2.952,0.454,4.51c1.117-0.162,1.902,0.738,2.397,1.518
			c0.62,1.64,1.157,3.32,0.29,5.002c-3.638-3.731-7.027-8.363-9.592-12.914c-0.039-0.163-0.206-0.083-0.33-0.123
			c-0.373,0.288-0.124,0.738-0.041,1.024c2.438,4.591,5.58,9.143,9.383,12.669c0.042,0.408-0.04,0.982-0.496,1.188
			c-0.453,0.246-1.074,0.288-1.57,0.125c-0.412-0.289-0.577-0.74-0.786-1.232c-1.28,0-2.894,0.575-3.802-0.695
			c-0.207-0.574-0.042-1.23,0.041-1.805c-1.364-0.451-3.348-1.024-3.638-2.746c-0.083-0.492,0.206-0.86,0.454-1.149
			c0.123-0.081,0.25-0.122,0.372-0.245c-1.116-0.697-2.977-1.106-3.183-2.705c0.041-0.779,0.785-1.066,1.281-1.477
			c-0.785-0.86-1.819-1.762-1.529-3.075c0.289-0.696,1.115-0.696,1.695-0.818c0.33-1.312-0.868-3.117,0.619-3.977
			C94.501,25.142,95.162,25.101,95.576,25.591z"/>
		<path clip-path="url(#SVGID_2_)" fill="#251F21" d="M122.194,26.31c0.499,1.028-0.124,2.179-0.04,3.287
			c0.622,0.206,1.452,0.288,1.699,0.986c0.208,1.233-0.871,1.972-1.575,2.794c0.456,0.494,1.328,0.82,1.203,1.603
			c-0.372,1.438-1.991,1.644-3.11,2.343c0.497,0.369,0.87,0.984,0.622,1.644c-0.457,1.479-2.115,1.849-3.359,2.177
			c-0.124,0.78,0.331,2.015-0.746,2.383c-0.831,0.329-2.2-0.04-3.112,0.123c0,0.453-0.373,0.822-0.705,1.069
			c-0.497,0.206-1.077,0-1.534-0.206c-0.249-0.246-0.415-0.615-0.375-0.986c0.416-0.902,1.495-1.395,2.075-2.177
			c2.779-2.794,4.895-5.999,6.927-9.287c0.166-0.451,0.747-0.985,0.25-1.52l-0.25,0.041c-2.861,4.314-5.601,8.546-9.498,12.164
			c-0.622-0.74-0.291-2.055-0.332-2.918c0.332-1.355,0.996-2.959,2.489-3.205c0.248,0.082,0.622,0,0.622-0.287
			c-0.167-1.356-0.042-3.041,0.621-4.313c0.497-0.536,1.534,0.039,1.909-0.576c0.497-1.397,0.207-3.412,1.783-4.109
			c0.663-0.166,0.953,0.286,1.451,0.411c0.207-0.945,0.83-1.727,1.826-1.932C121.49,25.817,121.988,25.94,122.194,26.31"/>
		<path clip-path="url(#SVGID_2_)" fill="none" stroke="#D4DDD8" stroke-width="0.1455" stroke-miterlimit="3.864" d="
			M122.177,26.332c0.497,1.025-0.123,2.173-0.042,3.279c0.621,0.206,1.447,0.286,1.695,0.984c0.207,1.229-0.868,1.967-1.57,2.787
			c0.454,0.492,1.322,0.819,1.198,1.6c-0.371,1.435-1.983,1.639-3.1,2.337c0.496,0.367,0.868,0.981,0.62,1.639
			c-0.455,1.477-2.107,1.845-3.348,2.172c-0.124,0.779,0.33,2.01-0.744,2.377c-0.827,0.328-2.191-0.04-3.102,0.123
			c0,0.452-0.371,0.82-0.702,1.065c-0.496,0.206-1.074,0-1.528-0.204c-0.248-0.246-0.414-0.614-0.373-0.984
			c0.412-0.902,1.488-1.392,2.067-2.172c2.77-2.786,4.877-5.984,6.903-9.264c0.164-0.45,0.744-0.983,0.248-1.516l-0.248,0.041
			c-2.853,4.304-5.581,8.524-9.467,12.133c-0.619-0.737-0.289-2.049-0.33-2.91c0.33-1.353,0.992-2.952,2.479-3.197
			c0.248,0.082,0.62,0,0.62-0.286c-0.166-1.353-0.041-3.033,0.619-4.304c0.497-0.534,1.529,0.04,1.902-0.574
			c0.497-1.394,0.207-3.403,1.778-4.099c0.66-0.165,0.95,0.286,1.446,0.41c0.206-0.943,0.826-1.721,1.818-1.927
			C121.475,25.84,121.971,25.964,122.177,26.332z"/>
		<path clip-path="url(#SVGID_2_)" fill="#251F21" d="M108.508,38.473v5.547c0.621-0.165,1.244-1.273,2.033-0.862
			c0.539,1.149-1.12,1.231-1.576,1.971c0.082,0.946-0.871,0.74-1.494,0.74c-0.373,0-0.704-0.247-0.704-0.616
			c-0.373-0.453-1.121-0.493-1.66-0.781c-0.249-0.164-0.206-0.534-0.124-0.738c0.621-0.617,1.494,0.287,2.24,0.41
			c0.166,0.084,0.166-0.123,0.206-0.246l0.042-5.59c0.084-0.287,0.374-0.204,0.581-0.326
			C108.301,38.062,108.467,38.227,108.508,38.473"/>
		<path clip-path="url(#SVGID_2_)" fill="none" stroke="#D4DDD8" stroke-width="0.1455" stroke-miterlimit="3.864" d="
			M108.501,38.494v5.514c0.616-0.164,1.235-1.266,2.017-0.857c0.535,1.143-1.111,1.225-1.562,1.959
			c0.081,0.939-0.865,0.735-1.482,0.735c-0.37,0-0.699-0.245-0.699-0.611c-0.369-0.45-1.111-0.491-1.646-0.776
			c-0.247-0.164-0.205-0.531-0.122-0.734c0.615-0.613,1.48,0.285,2.22,0.407c0.165,0.083,0.165-0.122,0.205-0.244l0.042-5.556
			c0.082-0.285,0.371-0.203,0.576-0.324C108.296,38.086,108.461,38.25,108.501,38.494z"/>
		<path clip-path="url(#SVGID_2_)" fill="#FFFFFF" d="M82.057,36.775l0.158,0.584l2.385-0.633c0.385-0.104,0.699-0.135,0.965,0.018
			c0.236,0.135,0.468,0.418,0.588,0.864c0.096,0.353,0.061,0.674-0.111,0.97c-0.137,0.23-0.312,0.342-0.775,0.466l-2.421,0.644
			l0.157,0.582l2.547-0.676c1.119-0.297,1.381-1.26,1.148-2.116c-0.326-1.21-1.149-1.63-2.152-1.362L82.057,36.775z"/>
		<path clip-path="url(#SVGID_2_)" fill="#FFFFFF" d="M85.27,34.269c0.025,0.202,0.213,0.349,0.416,0.323
			c0.204-0.025,0.351-0.213,0.325-0.413c-0.024-0.204-0.212-0.348-0.416-0.322C85.392,33.881,85.244,34.066,85.27,34.269"/>
		<path clip-path="url(#SVGID_2_)" fill="#FFFFFF" d="M81.85,29.201c-0.209,0.289-0.32,0.605-0.332,0.927
			c-0.027,0.769,0.396,1.289,1.087,1.314c1.163,0.041,1.327-1.773,2.203-1.743c0.237,0.007,0.527,0.233,0.511,0.702
			c-0.015,0.413-0.245,0.793-0.654,1.087l0.77,0.026c0.28-0.342,0.419-0.707,0.434-1.163c0.024-0.677-0.443-1.193-1.107-1.216
			c-1.35-0.047-1.402,1.772-2.216,1.742c-0.299-0.011-0.494-0.294-0.479-0.682c0.009-0.284,0.121-0.625,0.475-0.97L81.85,29.201z"/>
		<path clip-path="url(#SVGID_2_)" fill="#FFFFFF" d="M85.419,27.611c-0.031,0.201,0.106,0.39,0.311,0.422
			c0.202,0.032,0.395-0.106,0.427-0.308c0.033-0.2-0.108-0.39-0.31-0.422C85.643,27.271,85.451,27.409,85.419,27.611"/>
		<path clip-path="url(#SVGID_2_)" fill="#FFFFFF" d="M86.488,20.124l-0.579,1.289l0.5,0.22l0.333-0.737l0.795,0.351
			c-0.033,0.302-0.087,0.602-0.221,0.9c-0.411,0.913-1.307,1.286-2.17,0.905c-0.842-0.371-1.193-1.301-0.819-2.134
			c0.208-0.463,0.549-0.874,1.001-1.213l-0.563-0.248c-0.525,0.489-0.741,0.772-0.944,1.222c-0.525,1.171-0.056,2.445,1.086,2.949
			c1.137,0.501,2.356,0.001,2.887-1.177c0.239-0.535,0.336-0.991,0.338-1.603L86.488,20.124z"/>
		<path clip-path="url(#SVGID_2_)" fill="#FFFFFF" d="M86.564,15.996l3.298,2.645l0.382-0.47l-1.43-1.148l0.16-0.195
			c0.196-0.241,0.434-0.374,1.464-0.263l1.03,0.112l0.457-0.561c-0.499-0.027-0.676-0.035-1.018-0.078
			c-0.614-0.081-1.067-0.142-1.509-0.004c0.146-0.463,0.021-0.888-0.36-1.193c-0.57-0.458-1.261-0.329-1.801,0.332L86.564,15.996z
			 M87.354,15.85l0.247-0.3c0.371-0.456,0.709-0.486,1.022-0.244c0.279,0.218,0.425,0.57,0.013,1.072l-0.248,0.303L87.354,15.85z"/>
	</g>
	<polygon fill="#FFFFFF" points="93.013,9.786 91.089,11.221 93.643,14.577 95.61,13.108 95.281,12.676 93.801,13.783 
		93.008,12.739 94.393,11.702 94.062,11.27 92.677,12.304 91.906,11.291 93.342,10.22 	"/>
	<polygon fill="#FFFFFF" points="98.094,7.039 95.913,8.048 97.706,11.857 99.938,10.826 99.707,10.333 98.027,11.11 97.469,9.926 
		99.043,9.2 98.811,8.708 97.238,9.434 96.696,8.282 98.326,7.53 	"/>
	<polygon fill="#FFFFFF" points="105.555,5.231 104.99,5.319 105.503,8.533 102.151,5.765 101.671,5.84 102.336,9.992 102.9,9.903 
		102.391,6.707 105.704,9.464 106.219,9.382 	"/>
	<g>
		<defs>
			<rect id="SVGID_3_" x="1.656" y="0.484" width="137.344" height="61.344"/>
		</defs>
		<clipPath id="SVGID_4_">
			<use xlink:href="#SVGID_3_"  overflow="visible"/>
		</clipPath>
		<path clip-path="url(#SVGID_4_)" fill="#FFFFFF" d="M110.168,9.42l1.441,0.2c1.053,0.147,1.527-0.397,1.599-0.91
			c0.08-0.562-0.243-1.022-0.856-1.226l0.002-0.012c0.463-0.115,0.705-0.369,0.768-0.802c0.075-0.524-0.237-1.117-1.143-1.242
			l-1.221-0.17L110.168,9.42z M111.285,5.879l0.555,0.076c0.555,0.077,0.695,0.371,0.651,0.684c-0.063,0.444-0.384,0.623-0.981,0.54
			l-0.401-0.055L111.285,5.879z M111.032,7.661l0.728,0.103c0.635,0.088,0.893,0.396,0.84,0.776
			c-0.045,0.311-0.285,0.633-0.995,0.534l-0.757-0.107L111.032,7.661z"/>
		<path clip-path="url(#SVGID_4_)" fill="#FFFFFF" d="M120.424,8.108l-0.557-0.246l-1.006,2.235
			c-0.162,0.361-0.334,0.622-0.621,0.732c-0.254,0.098-0.623,0.096-1.048-0.091c-0.335-0.149-0.565-0.379-0.688-0.696
			c-0.099-0.252-0.074-0.458,0.12-0.891l1.02-2.268l-0.556-0.247l-1.074,2.388c-0.471,1.047,0.119,1.855,0.939,2.215
			c1.153,0.509,2,0.14,2.422-0.8L120.424,8.108z"/>
	</g>
	<polygon fill="#FFFFFF" points="123.909,10.324 123.416,9.969 120.922,13.369 121.416,13.723 	"/>
	<polygon fill="#FFFFFF" points="126.949,12.951 126.526,12.515 123.474,15.436 125.229,17.235 125.623,16.858 124.291,15.493 	"/>
	<g>
		<defs>
			<rect id="SVGID_5_" x="1.656" y="0.484" width="137.344" height="61.344"/>
		</defs>
		<clipPath id="SVGID_6_">
			<use xlink:href="#SVGID_5_"  overflow="visible"/>
		</clipPath>
		<path clip-path="url(#SVGID_6_)" fill="#FFFFFF" d="M126.688,19.132l0.803,1.433c0.68,1.214,1.996,1.456,2.948,0.934
			c0.876-0.48,1.521-1.616,0.76-2.975l-0.799-1.428L126.688,19.132z M130.216,17.886l0.456,0.814
			c0.576,1.029,0.208,1.845-0.537,2.254c-0.457,0.252-1.531,0.482-2.2-0.716l-0.472-0.841L130.216,17.886z"/>
	</g>
	<polygon fill="#FFFFFF" points="133.639,24.276 133.461,23.698 129.403,24.928 129.582,25.506 	"/>
	<polygon fill="#FFFFFF" points="134.729,31.76 134.689,31.195 131.412,31.422 134.488,28.354 134.454,27.875 130.223,28.167 
		130.263,28.733 133.521,28.508 130.459,31.537 130.496,32.053 	"/>
	<g>
		<defs>
			<rect id="SVGID_7_" x="1.656" y="0.484" width="137.344" height="61.344"/>
		</defs>
		<clipPath id="SVGID_8_">
			<use xlink:href="#SVGID_7_"  overflow="visible"/>
		</clipPath>
		<path clip-path="url(#SVGID_8_)" fill="#FFFFFF" d="M131.316,38.971l0.344-1.37l-0.531-0.13l-0.196,0.783l-0.846-0.209
			c-0.02-0.303-0.02-0.608,0.06-0.926c0.244-0.969,1.062-1.49,1.98-1.264c0.893,0.221,1.4,1.076,1.179,1.962
			c-0.124,0.49-0.388,0.953-0.773,1.365l0.599,0.147c0.432-0.572,0.596-0.889,0.715-1.367c0.313-1.243-0.373-2.416-1.586-2.716
			c-1.208-0.298-2.32,0.405-2.635,1.655c-0.144,0.568-0.158,1.033-0.054,1.639L131.316,38.971z"/>
		<path clip-path="url(#SVGID_8_)" fill="#FFFFFF" d="M96.355,49.497c-0.315-0.536-0.605-0.884-0.953-1.144
			c-1.078-0.805-2.427-0.639-3.207,0.386c-0.533,0.704-0.715,2.087,0.557,3.039c0.531,0.396,0.989,0.544,1.451,0.62l0.402-0.526
			c-0.57-0.04-1.089-0.22-1.472-0.505c-0.815-0.607-0.975-1.546-0.401-2.298c0.562-0.738,1.553-0.855,2.329-0.276
			c0.392,0.293,0.667,0.668,0.901,1.221L96.355,49.497z"/>
		<path clip-path="url(#SVGID_8_)" fill="#FFFFFF" d="M96.932,52.008c-0.431,1.058-0.002,2.326,1.284,2.84
			c1.332,0.532,2.515-0.096,2.943-1.147c0.443-1.085-0.003-2.327-1.302-2.848C98.584,50.343,97.371,50.928,96.932,52.008
			 M97.514,52.242c0.351-0.859,1.258-1.226,2.135-0.875c0.883,0.354,1.277,1.242,0.929,2.1c-0.349,0.852-1.258,1.225-2.141,0.872
			C97.56,53.988,97.166,53.092,97.514,52.242"/>
		<path clip-path="url(#SVGID_8_)" fill="#FFFFFF" d="M106.997,52.634l-0.604-0.083l-0.344,2.422
			c-0.057,0.391-0.148,0.689-0.394,0.871c-0.219,0.163-0.573,0.264-1.035,0.198c-0.362-0.05-0.648-0.208-0.855-0.48
			c-0.163-0.215-0.197-0.419-0.13-0.888l0.348-2.459l-0.603-0.086l-0.367,2.589c-0.162,1.136,0.631,1.748,1.518,1.872
			c1.251,0.175,1.963-0.411,2.106-1.43L106.997,52.634z"/>
	</g>
	<polygon fill="#FFFFFF" points="112.547,52.33 111.976,52.378 112.264,55.62 109.111,52.629 108.629,52.668 108.999,56.855 
		109.569,56.806 109.285,53.584 112.395,56.562 112.917,56.517 	"/>
	<g>
		<defs>
			<rect id="SVGID_9_" x="1.656" y="0.484" width="137.344" height="61.344"/>
		</defs>
		<clipPath id="SVGID_10_">
			<use xlink:href="#SVGID_9_"  overflow="visible"/>
		</clipPath>
		<path clip-path="url(#SVGID_10_)" fill="#FFFFFF" d="M117.752,50.988c-0.626-0.041-1.078,0.004-1.49,0.145
			c-1.277,0.436-1.893,1.635-1.471,2.848c0.289,0.834,1.348,1.758,2.853,1.242c0.63-0.213,1.009-0.507,1.331-0.845l-0.215-0.624
			c-0.352,0.446-0.792,0.771-1.245,0.928c-0.964,0.329-1.838-0.064-2.147-0.957c-0.305-0.875,0.153-1.753,1.071-2.066
			c0.465-0.16,0.932-0.174,1.526-0.058L117.752,50.988z"/>
	</g>
	<polygon fill="#FFFFFF" points="119.525,49.617 118.992,49.91 121.049,53.586 121.582,53.293 	"/>
	<polygon fill="#FFFFFF" points="121.931,47.988 121.457,48.369 124.127,51.634 126.091,50.06 125.746,49.639 124.257,50.833 	"/>
	<g>
		<defs>
			<rect id="SVGID_11_" x="1.656" y="0.484" width="137.344" height="61.344"/>
		</defs>
		<clipPath id="SVGID_12_">
			<use xlink:href="#SVGID_11_"  overflow="visible"/>
		</clipPath>
		<path clip-path="url(#SVGID_12_)" fill="#251F21" d="M110.709,17.353c0.166,0.453,0.041,0.863,0.083,1.355
			c0.995,0.453,1.907,1.274,1.865,2.466c-0.165,0.576-0.33,1.151-0.455,1.684c0.497,0.083,1.037,0.041,1.45,0.412
			c0.831,1.52-0.372,3.247-1.202,4.521c-0.871,0.656,0.499,0.862,0.499,1.479c0.497,1.355-0.041,2.917-0.913,3.863
			c0,0.164-0.457,0.41-0.125,0.656c-0.083,0.534-0.042,1.273-0.415,1.808c0.124,0.493-0.289,0.288-0.332,0.657
			c-0.746,0.699-1.782,1.109-2.654,1.191c0.25-4.354,0.125-8.629,0.084-13.149c-0.166-0.204-0.457-0.451-0.664-0.165l-0.249,0.454
			c-0.125,4.396,0,8.217-0.125,12.657c-1.575-0.577-3.235-1.686-3.981-3.289c-0.166-0.574,0.249-1.232,0.623-1.684
			c-0.83-0.535-2.115-1.479-1.867-2.752c-0.083-0.536,0.497-0.904,0.787-1.194c0.457-0.122,1.037-0.122,1.369-0.204
			c-1.078-1.521-2.529-3.494-1.659-5.549c0.374-0.534,1.078-0.574,1.659-0.738c-0.041-0.493-0.539-0.905-0.704-1.398
			c-0.208-0.615,0.083-1.191,0.331-1.686c0.623-0.574,1.369-0.861,2.24-0.861c0.332,0,0.953,0.574,0.953-0.164
			c0-0.659,0.124-1.315,0.747-1.603C109.131,15.791,110.376,16.365,110.709,17.353"/>
		<path clip-path="url(#SVGID_12_)" fill="#251F21" d="M95.569,25.57c0.497,0.412,0.663,0.947,0.829,1.48
			c0.581-0.04,1.245-0.493,1.908-0.205c1.244,1.11,1.037,2.959,1.536,4.438c0.703,0.205,1.698-0.042,2.03,0.78
			c0.706,1.315,0.374,2.956,0.457,4.52c1.12-0.164,1.907,0.739,2.406,1.521c0.622,1.645,1.161,3.328,0.29,5.013
			c-3.65-3.739-7.052-8.382-9.624-12.943c-0.041-0.163-0.206-0.083-0.332-0.122c-0.373,0.286-0.123,0.739-0.041,1.025
			c2.447,4.603,5.6,9.165,9.417,12.698c0.04,0.412-0.042,0.986-0.499,1.192c-0.456,0.245-1.077,0.286-1.576,0.122
			c-0.414-0.287-0.58-0.738-0.787-1.232c-1.287,0-2.904,0.576-3.816-0.697c-0.207-0.576-0.042-1.233,0.041-1.809
			c-1.368-0.452-3.358-1.027-3.65-2.754c-0.082-0.492,0.207-0.861,0.457-1.15c0.123-0.082,0.249-0.123,0.373-0.245
			c-1.12-0.7-2.986-1.11-3.194-2.712c0.042-0.781,0.788-1.069,1.286-1.48c-0.788-0.862-1.825-1.767-1.535-3.082
			c0.291-0.699,1.121-0.699,1.701-0.82c0.332-1.315-0.87-3.124,0.622-3.987C94.49,25.119,95.153,25.078,95.569,25.57"/>
		<path clip-path="url(#SVGID_12_)" fill="#251F21" d="M122.197,26.311c0.499,1.029-0.124,2.178-0.04,3.288
			c0.621,0.204,1.452,0.286,1.699,0.985c0.207,1.234-0.87,1.972-1.575,2.795c0.456,0.492,1.328,0.82,1.203,1.602
			c-0.374,1.438-1.991,1.644-3.111,2.342c0.498,0.369,0.871,0.984,0.623,1.645c-0.457,1.479-2.117,1.849-3.361,2.177
			c-0.123,0.78,0.332,2.015-0.746,2.384c-0.829,0.328-2.198-0.041-3.111,0.121c0,0.455-0.373,0.823-0.705,1.07
			c-0.497,0.206-1.078,0-1.533-0.205c-0.25-0.246-0.415-0.617-0.375-0.986c0.415-0.904,1.493-1.396,2.074-2.178
			c2.779-2.794,4.896-6,6.928-9.286c0.165-0.451,0.747-0.988,0.249-1.521l-0.249,0.041c-2.863,4.315-5.6,8.545-9.499,12.164
			c-0.622-0.739-0.291-2.056-0.331-2.917c0.331-1.356,0.996-2.961,2.488-3.206c0.248,0.081,0.621,0,0.621-0.288
			c-0.165-1.355-0.041-3.039,0.622-4.314c0.499-0.535,1.536,0.042,1.908-0.574c0.499-1.397,0.208-3.411,1.784-4.108
			c0.663-0.166,0.954,0.286,1.452,0.41c0.206-0.946,0.829-1.726,1.825-1.931C121.493,25.818,121.989,25.941,122.197,26.311"/>
		<path clip-path="url(#SVGID_12_)" fill="#251F21" d="M108.51,38.475v5.545c0.621-0.164,1.244-1.273,2.033-0.861
			c0.538,1.148-1.121,1.231-1.577,1.971c0.083,0.945-0.87,0.74-1.493,0.74c-0.373,0-0.705-0.247-0.705-0.616
			c-0.373-0.452-1.119-0.493-1.66-0.781c-0.248-0.165-0.205-0.533-0.123-0.739c0.621-0.616,1.493,0.287,2.24,0.41
			c0.166,0.084,0.166-0.123,0.206-0.246l0.042-5.589c0.084-0.287,0.374-0.205,0.581-0.327
			C108.302,38.062,108.469,38.227,108.51,38.475"/>
		<path clip-path="url(#SVGID_12_)" fill="#FFFFFF" d="M62.541,31.157c0,16.686-13.526,30.212-30.213,30.212
			c-16.686,0-30.211-13.526-30.211-30.212c0-16.687,13.525-30.213,30.211-30.213C49.015,0.944,62.541,14.471,62.541,31.157"/>
		<path clip-path="url(#SVGID_12_)" fill="#231F20" d="M32.33,60.674c-16.303,0-29.518-13.215-29.518-29.518
			C2.812,14.855,16.027,1.64,32.33,1.64c16.301,0,29.517,13.215,29.517,29.516C61.847,47.459,48.631,60.674,32.33,60.674
			 M32.33,0.484c-16.941,0-30.674,13.732-30.674,30.672c0,16.942,13.732,30.672,30.674,30.672c16.939,0,30.671-13.729,30.671-30.672
			C63.001,14.216,49.27,0.484,32.33,0.484"/>
		<path clip-path="url(#SVGID_12_)" fill="#231F20" d="M32.595,45.756c0,0-0.023,0.202-0.183,0.197
			c-0.161-0.007-0.15-0.197-0.15-0.197s-0.116-7.035-0.116-11.852c0-4.817,0.116-10.065,0.116-10.065s0.043-0.2,0.176-0.2
			c0.135,0,0.157,0.2,0.157,0.2s0.116,5.248,0.116,10.065C32.711,38.721,32.595,45.756,32.595,45.756 M45.747,35.357
			c0.288-0.137,3.796-1.217,2.99-3.31c-0.565-1.473-1.655,0.271-2.415-0.297c-0.244-0.181-0.396-0.326,0.672-1.361
			c1.068-1.039,1.392-1.774,1.499-2.413c0.104-0.638,0.104-1.124-0.335-1.37c-0.438-0.247-1.017,0.403-1.191-0.271
			c-0.106-0.361,0.031-0.565,0.033-1.21c0.002-0.707-0.723-2.473-2.406-1.876c-1.091,0.384-0.512,2.263-0.793,2.618
			c-0.289,0.364-0.533-0.75-1.146-0.926c-0.706-0.2-1.199,0.454-1.192,1.06c0.005,0.606,0.399,1.734,0.529,2.171
			c0.074,0.347,0.262,1.29,0.145,1.566c-0.181,0.417-0.334,0.282-0.736-0.25c-0.355-0.469-0.168-0.273-0.796-1.026
			c-0.779-0.962-1.254,0.371-1.312,1.263c-0.055,0.891,0.621,3.995,0.61,4.407c-0.048,1.859-1.081-0.273-1.115-0.324
			c-0.68-1.035-1.985-0.55-1.577,0.561c0.745,2.023,1.412,3.771,0.708,5.507c-0.095,0.231-0.221,0.638-0.395,1.04
			c5.734-5.34,7.312-12.735,7.313-12.744c0.021-0.076,0.157-0.149,0.228-0.126c0.072,0.022,0.106,0.165,0.084,0.243
			c-0.003,0.012-1.873,10.995-11.871,16.604c-0.221,0.12-0.247-0.01-0.289-0.208c0.046-1.741,0.12-2.923,0.765-3.307
			c5.385-3.196,3.636-4.667,2.52-4.886c-1.116-0.218-1.754-2.043-0.215-2.838c2.711-1.524,4.098-6.967,0.73-5.777
			c-0.308,0.026-2.521,1.178-0.569-2.16c1.847-3.34,1.278-6.314-0.637-5.019c-0.503,0.339-1.926,1.844-1.641-0.333
			c0.509-3.305-0.31-4.483-1.279-4.699c0,0-0.102-0.018-0.183-0.026l-0.088,0.004v-0.009c-0.059-0.005-0.273,0.032-0.273,0.032
			c-0.969,0.216-1.787,1.394-1.279,4.699c0.285,2.177-1.138,0.672-1.639,0.333c-1.916-1.295-2.485,1.679-0.638,5.019
			c1.95,3.338-0.263,2.186-0.569,2.16c-3.367-1.189-1.981,4.253,0.73,5.777c1.539,0.795,0.902,2.62-0.214,2.838
			c-1.117,0.219-2.867,1.689,2.517,4.886c0.647,0.384,0.726,1.574,0.773,3.32c-0.045,0.193-0.077,0.312-0.295,0.194
			c-9.997-5.608-11.867-16.591-11.871-16.604c-0.021-0.078,0.034-0.22,0.105-0.243c0.07-0.023,0.182,0.101,0.202,0.177
			c0.003,0.009,1.584,7.353,7.318,12.693c-0.174-0.402-0.3-0.809-0.396-1.04c-0.703-1.735-0.035-3.483,0.709-5.507
			c0.408-1.11-0.897-1.596-1.576-0.561c-0.034,0.051-1.069,2.184-1.116,0.324c-0.011-0.412,0.665-3.516,0.609-4.407
			c-0.058-0.892-0.531-2.225-1.311-1.263c-0.628,0.753-0.44,0.557-0.797,1.026c-0.401,0.531-0.555,0.667-0.735,0.25
			c-0.117-0.277,0.07-1.22,0.145-1.566c0.13-0.437,0.523-1.565,0.529-2.171c0.007-0.606-0.486-1.26-1.191-1.06
			c-0.613,0.176-0.857,1.29-1.146,0.926c-0.281-0.355,0.299-2.234-0.793-2.618c-1.684-0.597-2.409,1.169-2.405,1.876
			c0.001,0.646,0.14,0.849,0.031,1.21c-0.173,0.673-0.752,0.024-1.19,0.271c-0.439,0.246-0.44,0.732-0.335,1.37
			c0.106,0.639,0.432,1.375,1.499,2.413c1.067,1.035,0.916,1.18,0.672,1.361c-0.76,0.568-1.85-1.176-2.416,0.297
			c-0.806,2.093,2.703,3.173,2.991,3.31c0.751,0.359,1.164,1.18,0.138,0.938c-0.414-0.097-1.045-0.398-1.54,0.153
			c-1.308,1.457,2.101,3.998,4.364,4.467c2.262,0.469,4.288,1.332,5.143,1.721c0.844,0.384,4.439,2.852,4.689,3.851
			c0.064,0.295,0.219,0.512,0.565,0.512s0.495-0.193,0.56-0.493c0.229-0.979,3.84-3.484,4.686-3.869
			c0.854-0.389,2.879-1.252,5.143-1.721s5.671-3.01,4.364-4.467c-0.495-0.552-1.127-0.25-1.54-0.153
			C44.582,36.537,44.995,35.717,45.747,35.357"/>
		<path clip-path="url(#SVGID_12_)" fill="#231F20" d="M57.663,35.619c-0.11,0.653-0.444,1.071-1.02,1.279l-0.11,0.04l-0.322-0.786
			l0.112-0.047c0.333-0.139,0.466-0.297,0.522-0.627c0.039-0.234-0.002-0.442-0.126-0.615c-0.181-0.253-0.528-0.43-1.006-0.511
			c-0.814-0.138-1.339,0.115-1.438,0.694c-0.058,0.338,0.028,0.574,0.296,0.813l0.094,0.084l-0.565,0.6l-0.088-0.074
			c-0.464-0.386-0.66-0.938-0.556-1.562c0.178-1.045,1.141-1.604,2.398-1.391c0.677,0.113,1.224,0.422,1.537,0.863
			C57.646,34.735,57.74,35.166,57.663,35.619 M56.699,39.222l-3.953-1.236l0.209-0.675l0.037-0.117l3.953,1.235L56.699,39.222z
			 M55.825,41.492c0,0-2.81-1.298-3.017-1.393c-0.09,0.195-0.814,1.764-0.814,1.764l-0.744-0.342l1.11-2.407l0.052-0.112
			l3.763,1.736L55.825,41.492z M32.33,49.679c-10.23,0-18.522-8.293-18.522-18.521c0-10.229,8.292-18.522,18.522-18.522
			c10.229,0,18.521,8.293,18.521,18.522C50.852,41.386,42.559,49.679,32.33,49.679 M9.692,19.152l1.354-2.258l0.062-0.105
			l0.698,0.419c0,0-0.88,1.467-0.989,1.651c0.137,0.082,0.479,0.288,0.614,0.37c0.1-0.167,0.575-0.96,0.575-0.96l0.697,0.418
			c0,0-0.475,0.793-0.575,0.959c0.151,0.091,0.693,0.416,0.846,0.507c0.111-0.186,1.033-1.724,1.033-1.724l0.697,0.418l-1.46,2.436
			L9.692,19.152z M12.495,22.966c0,0-1.579,0.169-1.716,0.184c-0.037,0.1-0.182,0.484-0.238,0.638
			c0.194,0.073,1.444,0.541,1.444,0.541l-0.288,0.767l-3.88-1.452l0.644-1.716c0.299-0.795,0.943-1.115,1.686-0.837
			c0.558,0.208,0.857,0.616,0.857,1.157c0,0.008-0.002,0.016-0.002,0.023c0.243-0.026,1.824-0.193,1.824-0.193L12.495,22.966z
			 M11.162,40.829L8.93,41.666l-0.29-0.777l2.215-0.831c0.354-0.132,0.583-0.309,0.681-0.521c0.072-0.16,0.07-0.346-0.008-0.552
			c-0.117-0.313-0.367-0.694-1.18-0.39l-2.252,0.843l-0.292-0.776l2.243-0.842c1.092-0.408,1.895-0.095,2.262,0.883
			C12.663,39.647,12.244,40.422,11.162,40.829 M6.873,34.324c-0.062-0.521,0.066-0.984,0.396-1.419l0.075-0.1l0.661,0.511
			l-0.079,0.098c-0.203,0.254-0.275,0.517-0.234,0.855c0.023,0.196,0.089,0.342,0.188,0.419l0.236,0.062
			c0.161-0.021,0.269-0.085,0.394-0.819c0.128-0.724,0.309-1.382,1.122-1.479c0.366-0.045,0.68,0.031,0.93,0.226
			c0.3,0.234,0.486,0.629,0.551,1.169c0.069,0.57-0.107,1.135-0.488,1.55l-0.078,0.086l-0.641-0.518l0.082-0.096
			c0.229-0.269,0.347-0.641,0.307-0.968c-0.072-0.602-0.318-0.649-0.523-0.626c-0.196,0.023-0.311,0.158-0.43,0.85
			c-0.137,0.812-0.288,1.352-1.098,1.45c-0.312,0.038-0.604-0.04-0.841-0.226C7.114,35.125,6.926,34.76,6.873,34.324 M10.947,31.36
			c0.005,0.304-0.249,0.567-0.553,0.572c-0.309,0.004-0.572-0.25-0.578-0.554c-0.004-0.305,0.252-0.567,0.559-0.572
			C10.68,30.802,10.941,31.056,10.947,31.36 M11.597,36.427c0.075,0.296-0.112,0.608-0.408,0.684
			c-0.298,0.074-0.613-0.111-0.688-0.407c-0.074-0.295,0.114-0.609,0.413-0.685h0.001C11.209,35.944,11.521,36.132,11.597,36.427
			 M7.056,26.784c0.108-0.644,0.452-1.075,1.019-1.279l0.111-0.041l0.318,0.779L8.391,26.29c-0.329,0.139-0.461,0.298-0.516,0.632
			C7.834,27.161,7.876,27.369,8,27.545c0.182,0.254,0.528,0.43,1.004,0.511c0.816,0.138,1.341-0.117,1.438-0.699
			c0.011-0.065,0.017-0.128,0.017-0.187c0-0.158-0.039-0.292-0.117-0.402c-0.109-0.153-0.268-0.219-0.41-0.256
			c-0.029,0.166-0.104,0.611-0.104,0.611l-0.797-0.135l0.245-1.455l0.565,0.096c0.521,0.088,0.927,0.32,1.178,0.673
			c0.234,0.329,0.318,0.741,0.241,1.193c-0.077,0.454-0.305,0.827-0.661,1.08c-0.441,0.314-1.059,0.424-1.736,0.31
			s-1.225-0.421-1.538-0.864c-0.195-0.274-0.296-0.593-0.296-0.932C7.029,26.989,7.039,26.887,7.056,26.784 M13.795,13.47
			l0.08-0.093l0.616,0.531c0,0-1.117,1.296-1.257,1.459c0.121,0.104,0.422,0.364,0.544,0.468c0.126-0.148,0.729-0.848,0.729-0.848
			l0.617,0.53c0,0-0.604,0.701-0.73,0.848c0.134,0.115,0.612,0.527,0.746,0.643c0.142-0.165,1.312-1.523,1.312-1.523l0.616,0.531
			l-1.854,2.151l-3.139-2.702L13.795,13.47z M15.698,11.694l2.707,0.949c0,0,0.103,0.038,0.173,0.064
			c-0.082-0.099-0.292-0.357-0.292-0.357l-1.335-1.663l0.538-0.433l0.096-0.076l2.595,3.23l-0.583,0.467l-2.804-0.955
			c0,0-0.065-0.023-0.111-0.04c0.058,0.07,0.289,0.354,0.289,0.354l1.342,1.672l-0.634,0.51l-2.595-3.231L15.698,11.694z
			 M22.551,7.496c0.365-0.156,0.711-0.177,0.996-0.062c0.26,0.104,0.463,0.318,0.592,0.62c0.057,0.135,0.086,0.269,0.086,0.398
			c0,0.158-0.096,0.301-0.178,0.446c0.325,0.018,0.702,0.179,0.9,0.645c0.088,0.207,0.133,0.405,0.133,0.592
			c0,0.142-0.025,0.278-0.078,0.407c-0.133,0.33-0.428,0.595-0.88,0.786l-1.537,0.655l-1.623-3.811L22.551,7.496z M26.236,6.275
			l0.494,2.314c0.139,0.654,0.462,0.931,0.961,0.825c0.327-0.072,0.74-0.265,0.561-1.11l-0.504-2.352l0.691-0.147l0.121-0.026
			l0.5,2.341c0.128,0.598,0.07,1.088-0.169,1.459c-0.214,0.329-0.563,0.548-1.037,0.648c-0.457,0.098-0.852,0.042-1.175-0.167
			c-0.372-0.242-0.628-0.673-0.758-1.281l-0.498-2.331L26.236,6.275z M30.894,5.588l0.122-0.008l0.281,4.132L30.47,9.77
			l-0.282-4.134L30.894,5.588z M32.566,5.641l0.007-0.122l0.828,0.046c0,0-0.176,3.091-0.188,3.319c0.215,0.012,1.94,0.11,1.94,0.11
			l-0.048,0.817l-2.768-0.158L32.566,5.641z M36.849,6.019l0.028-0.12l1.152,0.275c1.231,0.295,1.787,1.224,1.484,2.486
			c-0.355,1.484-1.497,1.771-2.447,1.544l-1.154-0.277L36.849,6.019z M41.293,7.274l0.046-0.114l0.771,0.303l-1.512,3.855
			l-0.771-0.303L41.293,7.274z M43.645,8.104l0.683,0.389l0.112,2.867c0,0,0.002,0.109,0.003,0.184
			c0.091-0.162,0.226-0.401,0.226-0.401l1.057-1.854l0.706,0.403l-2.052,3.599l-0.647-0.37l-0.144-2.958c0,0-0.002-0.07-0.004-0.117
			c-0.084,0.15-0.223,0.397-0.223,0.397L42.3,12.105l-0.707-0.403l1.991-3.492L43.645,8.104z M49.15,11.73
			c0.496,0.424,0.688,0.94,0.571,1.533l-0.023,0.116l-0.832-0.13l0.019-0.12c0.051-0.354-0.018-0.548-0.275-0.769
			c-0.182-0.158-0.384-0.229-0.598-0.213c-0.311,0.024-0.642,0.229-0.955,0.596c-0.312,0.366-0.468,0.724-0.443,1.034
			c0.017,0.214,0.117,0.402,0.301,0.559c0.185,0.159,0.371,0.232,0.555,0.217c0.189-0.014,0.326-0.117,0.432-0.22
			c-0.127-0.11-0.47-0.403-0.47-0.403l0.526-0.614l1.12,0.962l-0.374,0.436c-0.344,0.4-0.753,0.628-1.184,0.661
			c-0.402,0.031-0.799-0.11-1.146-0.409c-0.35-0.3-0.553-0.688-0.585-1.123c-0.042-0.542,0.182-1.127,0.63-1.648
			c0.447-0.521,0.992-0.831,1.533-0.872C48.387,11.29,48.802,11.431,49.15,11.73 M49.922,18.053
			c0.103-0.533,0.471-1.039,1.039-1.424c1.056-0.716,2.166-0.607,2.76,0.269c0.371,0.548,0.42,1.081,0.147,1.629l-0.053,0.105
			l-0.776-0.344l0.049-0.111c0.145-0.333,0.131-0.538-0.055-0.813c-0.135-0.198-0.31-0.319-0.52-0.36
			c-0.304-0.058-0.677,0.054-1.076,0.326c-0.685,0.464-0.89,1.01-0.562,1.495c0.194,0.285,0.418,0.396,0.777,0.384l0.125-0.004
			l0.008,0.823l-0.115,0.007c-0.601,0.042-1.125-0.223-1.479-0.745C49.932,18.909,49.84,18.482,49.922,18.053 M55.904,20.882
			c0.186,0.424,0.199,0.863,0.039,1.271c-0.197,0.504-0.653,0.935-1.282,1.21c-0.628,0.275-1.252,0.318-1.757,0.12
			c-0.408-0.159-0.723-0.468-0.907-0.893c-0.185-0.421-0.198-0.859-0.039-1.266c0.196-0.505,0.653-0.935,1.282-1.21
			C54.408,19.604,55.479,19.913,55.904,20.882 M57.049,24.093l0.178,0.811l-2.312,0.506c-0.371,0.082-0.623,0.223-0.749,0.42
			c-0.094,0.148-0.117,0.331-0.07,0.547c0.052,0.234,0.148,0.396,0.3,0.491c0.185,0.12,0.459,0.14,0.812,0.063l2.352-0.516
			l0.177,0.811l-2.339,0.514c-1.14,0.25-1.89-0.176-2.114-1.196c-0.216-0.984,0.308-1.692,1.438-1.94l2.208-0.484L57.049,24.093z
			 M57.947,29.031l0.017,0.786l-2.403,1.568c0,0-0.093,0.057-0.156,0.097c0.096-0.003,0.46-0.013,0.46-0.013l2.132-0.044
			l0.018,0.813l-4.141,0.084l-0.016-0.746l2.466-1.641c0,0,0.061-0.038,0.1-0.063c-0.097,0.002-0.458,0.013-0.458,0.013
			l-2.143,0.043l-0.016-0.812l4.018-0.083L57.947,29.031z M32.328,2.726c-15.701,0-28.431,12.729-28.431,28.432
			c0,15.702,12.729,28.431,28.431,28.431c15.703,0,28.432-12.729,28.432-28.431C60.76,15.455,48.031,2.726,32.328,2.726"/>
		<path clip-path="url(#SVGID_12_)" fill="#231F20" d="M23.013,10.954c0.237-0.102,0.845-0.359,0.845-0.359
			c0.194-0.083,0.318-0.187,0.367-0.31l-0.035-0.4L23.92,9.59c-0.125-0.051-0.283-0.039-0.456,0.035c0,0-0.685,0.292-0.861,0.367
			C22.673,10.157,22.943,10.788,23.013,10.954"/>
		<path clip-path="url(#SVGID_12_)" fill="#231F20" d="M9.869,21.879c-0.301-0.112-0.543,0.007-0.663,0.328
			c0,0-0.286,0.767-0.354,0.949c0.166,0.062,0.776,0.291,0.943,0.354c0.068-0.183,0.355-0.949,0.355-0.949
			c0.029-0.08,0.051-0.168,0.051-0.257C10.201,22.137,10.123,21.975,9.869,21.879"/>
		<path clip-path="url(#SVGID_12_)" fill="#231F20" d="M52.677,21.904c0,0.115,0.026,0.234,0.079,0.354
			c0.237,0.544,0.811,0.667,1.568,0.335c0.44-0.193,0.734-0.449,0.848-0.739c0.079-0.202,0.068-0.417-0.028-0.64
			c-0.236-0.541-0.808-0.662-1.566-0.33C52.989,21.143,52.677,21.503,52.677,21.904"/>
		<path clip-path="url(#SVGID_12_)" fill="#231F20" d="M38.162,9.328c0.255-0.156,0.434-0.447,0.533-0.863
			c0.039-0.162,0.059-0.312,0.059-0.452c0-0.216-0.047-0.404-0.143-0.558c-0.145-0.236-0.404-0.4-0.771-0.488
			c0,0-0.214-0.052-0.347-0.083c-0.05,0.208-0.535,2.239-0.585,2.447c0.132,0.032,0.347,0.083,0.347,0.083
			C37.621,9.501,37.927,9.472,38.162,9.328"/>
		<path clip-path="url(#SVGID_12_)" fill="#231F20" d="M23.424,8.575c0-0.067-0.02-0.126-0.035-0.164
			c-0.104-0.242-0.279-0.305-0.537-0.195c0,0-0.675,0.287-0.85,0.362c0.062,0.15,0.234,0.552,0.297,0.701
			c0.24-0.102,0.851-0.362,0.851-0.362C23.368,8.824,23.424,8.688,23.424,8.575"/>
		<path clip-path="url(#SVGID_12_)" fill="#FFFFFF" d="M19.243,53.338l0.966-1.461c0.143-0.216,0.488-0.715,0.589-0.868
			c-0.154,0.11-0.461,0.315-0.714,0.476l-1.976,1.234l0.36-2.302c0.047-0.294,0.116-0.658,0.157-0.844
			c-0.103,0.154-0.425,0.667-0.567,0.884l-0.965,1.461l-0.781-0.514l2.631-3.981l0.768,0.508l-0.36,2.351
			c-0.044,0.289-0.124,0.67-0.167,0.846c0.149-0.114,0.455-0.328,0.707-0.488l1.993-1.273l0.785,0.518l-2.63,3.981L19.243,53.338z"
			/>
	</g>
	<polygon fill="#FFFFFF" points="22.256,54.881 23.845,50.381 26.968,51.486 26.656,52.365 24.434,51.58 24.158,52.358 
		25.451,52.814 25.143,53.688 23.85,53.232 23.467,54.318 25.787,55.139 25.477,56.019 	"/>
	<g>
		<defs>
			<rect id="SVGID_13_" x="1.656" y="0.484" width="137.344" height="61.344"/>
		</defs>
		<clipPath id="SVGID_14_">
			<use xlink:href="#SVGID_13_"  overflow="visible"/>
		</clipPath>
		<path clip-path="url(#SVGID_14_)" fill="#FFFFFF" d="M31.137,56.881l0.166-1.744c0.023-0.258,0.096-0.861,0.112-1.045
			c-0.084,0.172-0.259,0.496-0.407,0.756l-1.164,2.02l-0.764-2.202c-0.096-0.283-0.205-0.636-0.257-0.819
			c-0.019,0.184-0.062,0.788-0.087,1.046l-0.165,1.744l-0.929-0.089l0.451-4.749l0.916,0.087l0.787,2.246
			c0.096,0.276,0.204,0.648,0.249,0.824c0.077-0.17,0.247-0.504,0.395-0.764l1.161-2.06l0.937,0.09l-0.452,4.749L31.137,56.881z"/>
		<path clip-path="url(#SVGID_14_)" fill="#FFFFFF" d="M36.352,54.399l-1.253,0.193l0.188,1.219l1.254-0.192
			c0.457-0.072,0.636-0.348,0.579-0.718C37.055,54.497,36.809,54.329,36.352,54.399 M36.031,52.676l-1.201,0.186l0.139,0.896
			l1.246-0.193c0.392-0.061,0.504-0.264,0.465-0.526C36.633,52.742,36.441,52.613,36.031,52.676 M36.645,56.52l-2.141,0.33
			l-0.73-4.715l2.162-0.334c0.917-0.142,1.564,0.207,1.689,1.016c0.062,0.404-0.076,0.757-0.357,0.993
			c0.404,0.11,0.738,0.41,0.82,0.929C38.238,55.729,37.654,56.363,36.645,56.52"/>
	</g>
	<polygon fill="#FFFFFF" points="40.42,55.631 38.644,51.204 41.717,49.969 42.064,50.836 39.876,51.715 40.184,52.48 
		41.455,51.969 41.8,52.828 40.528,53.34 40.958,54.41 43.241,53.493 43.588,54.358 	"/>
	<g>
		<defs>
			<rect id="SVGID_15_" x="1.656" y="0.484" width="137.344" height="61.344"/>
		</defs>
		<clipPath id="SVGID_16_">
			<use xlink:href="#SVGID_15_"  overflow="visible"/>
		</clipPath>
		<path clip-path="url(#SVGID_16_)" fill="#FFFFFF" d="M44.901,49.065l-1.032,0.699l0.688,1.017l1.032-0.701
			c0.368-0.248,0.449-0.551,0.217-0.895C45.564,48.83,45.251,48.828,44.901,49.065 M47.525,51.93l-1.668-0.943l-0.796,0.539
			l0.964,1.422l-0.791,0.535l-2.676-3.949l1.838-1.247c0.746-0.505,1.641-0.509,2.209,0.331c0.402,0.592,0.401,1.137,0.033,1.676
			l1.796,1.021L47.525,51.93z"/>
		<path clip-path="url(#SVGID_16_)" fill="#231F20" d="M55.695,54.169h0.266c0.272,0,0.361-0.079,0.361-0.239
			c0-0.14-0.067-0.217-0.323-0.217h-0.304V54.169z M55.695,54.986h-0.225v-1.458h0.558c0.349,0,0.519,0.13,0.519,0.416
			c0,0.263-0.163,0.374-0.381,0.401l0.416,0.641h-0.246l-0.389-0.633h-0.252V54.986z M55.965,53.197c-0.587,0-1.04,0.453-1.04,1.057
			c0,0.616,0.453,1.062,1.04,1.062c0.578,0,1.031-0.446,1.031-1.062C56.996,53.65,56.543,53.197,55.965,53.197 M55.965,52.994
			c0.688,0,1.277,0.534,1.277,1.26c0,0.732-0.59,1.268-1.277,1.268c-0.695,0-1.285-0.535-1.285-1.268
			C54.68,53.528,55.27,52.994,55.965,52.994"/>
	</g>
</g>
</svg>
